<?xml version="1.0" encoding="UTF-8"?><svg id="Layer_1" xmlns="http://www.w3.org/2000/svg" viewBox="0 0 222.37 222.37"><defs><style>.cls-1{fill:#251749;}</style></defs><polygon class="cls-1" points="76.74 60.19 72.29 73.94 81.18 73.94 76.74 60.19"/><polygon class="cls-1" points="222.37 150.51 219.83 154.47 222.37 158.39 222.37 150.51"/><polygon class="cls-1" points="120.2 153.55 129.09 153.55 124.64 139.8 120.2 153.55"/><path class="cls-1" d="M196.86,177.78l-20.45,34.2h-39.9l37.39-57.34-34.87-54.49h39.73l18.11,31.85,17.77-31.85h7.74V57.36c0-31.68-25.68-57.36-57.36-57.36H57.36C25.68,0,0,25.68,0,57.36v107.65c0,31.68,25.68,57.36,57.36,57.36h107.65c18.4,0,34.77-8.68,45.27-22.15l-13.42-22.44ZM144.55,49.77h11.82v39.02h-11.82V49.77Zm-43.88,0h12.17l13.57,19.66v-19.66h11.82v39.02h-11.35l-14.39-20.94v20.94h-11.82V49.77Zm-31.36,0h14.86l14.39,39.02h-12.81l-1.52-5.03h-14.98l-1.52,5.03h-12.81l14.39-39.02Zm31.4,118.63h-11.82v-24.63l-8.72,24.63h-5.27l-8.72-24.63v24.63h-11.82v-39.02h16.32l6.84,19.89,6.84-19.89h16.32v39.02Zm31.42-5.03h-14.98l-1.52,5.03h-12.81l14.39-39.02h14.86l14.39,39.02h-12.81l-1.52-5.03Z"/></svg>