<?xml version="1.0" encoding="UTF-8"?><svg id="Layer_1" xmlns="http://www.w3.org/2000/svg" viewBox="0 0 222.37 222.37"><defs><style>.cls-1{fill:#fff;}</style></defs><polygon class="cls-1" points="113.21 143.36 122.11 143.36 117.66 129.61 113.21 143.36"/><polygon class="cls-1" points="197.84 144.28 222.37 182.01 222.37 106.07 197.84 144.28"/><polygon class="cls-1" points="79.75 50 75.31 63.74 84.2 63.74 79.75 50"/><path class="cls-1" d="M195.33,201.78l-20.45-34.2-20.45,34.2h-39.9l37.39-57.34-34.87-54.49h39.73l18.11,31.85,17.77-31.85h29.73V24.32c0-13.43-10.89-24.32-24.32-24.32H24.32C10.89,0,0,10.89,0,24.32V198.06c0,13.43,10.89,24.32,24.32,24.32H198.06c12.16,0,22.24-8.93,24.03-20.59h-26.76ZM147.57,39.58h11.82v39.02h-11.82V39.58Zm-43.88,0h12.17l13.57,19.66v-19.66h11.82v39.02h-11.35l-14.39-20.94v20.94h-11.82V39.58Zm-31.36,0h14.86l14.39,39.02h-12.81l-1.52-5.03h-14.98l-1.52,5.03h-12.81l14.39-39.02Zm21.4,118.63h-11.82v-24.63l-8.72,24.63h-5.27l-8.72-24.63v24.63h-11.82v-39.02h16.32l6.84,19.89,6.84-19.89h16.32v39.02Zm14.92,0h-12.81l14.39-39.02h14.86l14.39,39.02h-12.81l-1.52-5.03h-14.98l-1.52,5.03Z"/></svg>